<?xml version="1.0" encoding="UTF-8" standalone="no"?>
<svg
   xmlns:dc="http://purl.org/dc/elements/1.1/"
   xmlns:cc="http://creativecommons.org/ns#"
   xmlns:rdf="http://www.w3.org/1999/02/22-rdf-syntax-ns#"
   xmlns:svg="http://www.w3.org/2000/svg"
   xmlns="http://www.w3.org/2000/svg"
   xmlns:xlink="http://www.w3.org/1999/xlink"
   xmlns:sodipodi="http://sodipodi.sourceforge.net/DTD/sodipodi-0.dtd"
   xmlns:inkscape="http://www.inkscape.org/namespaces/inkscape"
   width="48px"
   height="48px"
   id="svg2383"
   sodipodi:version="0.32"
   inkscape:version="1.0.2 (e86c870879, 2021-01-15)"
   sodipodi:docname="assyriological.svg"
   inkscape:output_extension="org.inkscape.output.svg.inkscape"
   version="1.1">
  <defs
     id="defs2385">
    <linearGradient
       id="linearGradient3165">
      <stop
         style="stop-color:#3e9ade;stop-opacity:1;"
         offset="0"
         id="stop3167" />
      <stop
         style="stop-color:#ffffff;stop-opacity:1;"
         offset="1"
         id="stop3169" />
    </linearGradient>
    <inkscape:perspective
       sodipodi:type="inkscape:persp3d"
       inkscape:vp_x="0 : 24 : 1"
       inkscape:vp_y="6.1230318e-14 : 1000 : 0"
       inkscape:vp_z="48 : 24 : 1"
       inkscape:persp3d-origin="24 : 16 : 1"
       id="perspective2391" />
    <linearGradient
       inkscape:collect="always"
       xlink:href="#linearGradient3165"
       id="linearGradient3170"
       x1="9.4285707"
       y1="16.928572"
       x2="21.285713"
       y2="16.928572"
       gradientUnits="userSpaceOnUse" />
    <linearGradient
       inkscape:collect="always"
       xlink:href="#linearGradient3165"
       id="linearGradient3182"
       x1="4"
       y1="22.214285"
       x2="24.428572"
       y2="22.214285"
       gradientUnits="userSpaceOnUse" />
    <linearGradient
       inkscape:collect="always"
       xlink:href="#linearGradient3165"
       id="linearGradient3209"
       gradientUnits="userSpaceOnUse"
       x1="7.746789"
       y1="27.427807"
       x2="22.480242"
       y2="13.872649" />
    <linearGradient
       inkscape:collect="always"
       xlink:href="#linearGradient3165"
       id="linearGradient3213"
       gradientUnits="userSpaceOnUse"
       x1="8.4049778"
       y1="28.256899"
       x2="23.510868"
       y2="13.821767" />
    <linearGradient
       inkscape:collect="always"
       xlink:href="#linearGradient3165"
       id="linearGradient3220"
       gradientUnits="userSpaceOnUse"
       x1="8.4049778"
       y1="28.256899"
       x2="23.510868"
       y2="13.821767" />
    <linearGradient
       inkscape:collect="always"
       xlink:href="#linearGradient3165"
       id="linearGradient3226"
       gradientUnits="userSpaceOnUse"
       x1="8.4049778"
       y1="28.256899"
       x2="23.510868"
       y2="13.821767" />
    <linearGradient
       inkscape:collect="always"
       xlink:href="#linearGradient3165"
       id="linearGradient3231"
       gradientUnits="userSpaceOnUse"
       x1="8.4049778"
       y1="28.256899"
       x2="23.510868"
       y2="13.821767" />
    <linearGradient
       inkscape:collect="always"
       xlink:href="#linearGradient3165"
       id="linearGradient3234"
       gradientUnits="userSpaceOnUse"
       x1="8.4049778"
       y1="28.256899"
       x2="23.510868"
       y2="13.821767"
       gradientTransform="matrix(0.7783402,0,0,0.8510982,20.293591,5.3791756)" />
    <linearGradient
       inkscape:collect="always"
       xlink:href="#linearGradient3165"
       id="linearGradient3236"
       gradientUnits="userSpaceOnUse"
       x1="7.746789"
       y1="27.427807"
       x2="22.480242"
       y2="13.872649" />
    <linearGradient
       inkscape:collect="always"
       xlink:href="#linearGradient3165"
       id="linearGradient2404"
       gradientUnits="userSpaceOnUse"
       gradientTransform="matrix(1.4588402,0,0,1.4048982,49.195745,-11.087965)"
       x1="17.28125"
       y1="29.756697"
       x2="47.526787"
       y2="0.7566964" />
    <linearGradient
       inkscape:collect="always"
       xlink:href="#linearGradient3165"
       id="linearGradient3183"
       x1="2.8246861"
       y1="23.993546"
       x2="43.341003"
       y2="23.721262"
       gradientUnits="userSpaceOnUse"
       gradientTransform="matrix(0.9452362,0,0,0.9452361,1.5728255,0.5656012)" />
    <linearGradient
       inkscape:collect="always"
       xlink:href="#linearGradient3165"
       id="linearGradient3871"
       gradientUnits="userSpaceOnUse"
       gradientTransform="matrix(0.9452362,0,0,0.9452361,21.00127,7.1711335)"
       x1="10.56702"
       y1="37.847939"
       x2="55.943497"
       y2="-8.0981693" />
    <linearGradient
       inkscape:collect="always"
       xlink:href="#linearGradient3165"
       id="linearGradient911"
       gradientUnits="userSpaceOnUse"
       gradientTransform="matrix(0.9452362,0,0,0.9452361,1.5728255,0.5656012)"
       x1="-39.913151"
       y1="10.632633"
       x2="-24.441793"
       y2="10.786477" />
    <linearGradient
       inkscape:collect="always"
       xlink:href="#linearGradient3165"
       id="linearGradient913"
       gradientUnits="userSpaceOnUse"
       gradientTransform="matrix(0.9452362,0,0,0.9452361,1.5728255,0.5656012)"
       x1="-39.913151"
       y1="10.632633"
       x2="-24.441793"
       y2="10.786477" />
  </defs>
  <sodipodi:namedview
     id="base"
     pagecolor="#ffffff"
     bordercolor="#666666"
     borderopacity="1.0"
     inkscape:pageopacity="0.0"
     inkscape:pageshadow="2"
     inkscape:zoom="7"
     inkscape:cx="-8.1386814"
     inkscape:cy="39.589296"
     inkscape:current-layer="layer1"
     showgrid="true"
     inkscape:grid-bbox="true"
     inkscape:document-units="px"
     inkscape:window-width="1610"
     inkscape:window-height="917"
     inkscape:window-x="248"
     inkscape:window-y="0"
     inkscape:document-rotation="0"
     inkscape:window-maximized="0"
     inkscape:snap-global="false" />
  <metadata
     id="metadata2388">
    <rdf:RDF>
      <cc:Work
         rdf:about="">
        <dc:format>image/svg+xml</dc:format>
        <dc:type
           rdf:resource="http://purl.org/dc/dcmitype/StillImage" />
        <dc:title />
      </cc:Work>
    </rdf:RDF>
  </metadata>
  <g
     id="layer1"
     inkscape:label="Layer 1"
     inkscape:groupmode="layer">
    <path
       sodipodi:type="arc"
       style="opacity:1;fill:#6b6b6b;fill-opacity:0.22110554;stroke:none;stroke-width:0.37799999;stroke-linejoin:round;stroke-miterlimit:4;stroke-dasharray:none;stroke-dashoffset:0;stroke-opacity:1"
       id="path2390"
       sodipodi:cx="25.357143"
       sodipodi:cy="45.357143"
       sodipodi:rx="15.642858"
       sodipodi:ry="2.3571429"
       d="M 41.000001,45.357143 A 15.642858,2.3571429 0 1 1 9.7142859,45.357143 A 15.642858,2.3571429 0 1 1 41.000001,45.357143 z"
       transform="matrix(1.2304582,0,0,1.4687983,-6.0580467,-22.40621)" />
    <text
       xml:space="preserve"
       style="font-style:normal;font-weight:bold;line-height:0%;font-family:'Bitstream Vera Sans';fill:#000000;fill-opacity:1;stroke:none;stroke-width:1px;stroke-linecap:butt;stroke-linejoin:miter;stroke-opacity:1"
       x="14.428571"
       y="15.714286"
       id="text2387"><tspan
         sodipodi:role="line"
         id="tspan2389"
         x="14.428571"
         y="15.714286"
         style="font-size:12px;line-height:1.25"> </tspan></text>
    <text
       xml:space="preserve"
       style="font-style:normal;font-weight:normal;line-height:0%;font-family:'Bitstream Vera Sans';fill:#000000;fill-opacity:1;stroke:none;stroke-width:1px;stroke-linecap:butt;stroke-linejoin:miter;stroke-opacity:1"
       x="17"
       y="16.714287"
       id="text2396"><tspan
         sodipodi:role="line"
         id="tspan2398"
         x="17"
         y="16.714287"
         style="font-style:normal;font-weight:bold;font-size:12px;line-height:1.25"> </tspan></text>
    <path
       d="m -30.978405,49.867349 -1.494794,0.391928 q -0.33724,0.09115 -0.583334,0.282553 -0.23698,0.191406 -0.364584,0.446615 -0.11849,0.246094 -0.173178,0.501303 -0.05469,0.255209 -0.05469,0.528647 0,0.391927 0.282552,0.729168 0.291667,0.33724 0.69271,0.33724 0.738282,0 1.376304,-0.638022 0.100261,-0.100261 0.191407,-0.373699 0.09115,-0.273438 0.09115,-0.464844 z m 2.351567,2.652349 q 0,0.428386 0.255209,0.55599 0.255209,0.11849 0.884116,0.11849 0.136719,0.109375 0.182292,0.391928 -0.391928,0.300782 -1.002606,0.45573 -0.610678,0.154948 -1.212242,0.154948 -0.601563,0 -0.938804,-0.246094 -0.33724,-0.255209 -0.537761,-0.829429 h -0.03646 q -1.075523,1.075523 -2.561203,1.075523 -1.039064,0 -1.795576,-0.546876 -0.756512,-0.546876 -0.756512,-1.467451 0,-0.947918 0.756512,-1.631513 0.756512,-0.692709 2.114587,-1.020835 l 2.187504,-0.57422 q 0.109375,-0.03646 0.109375,-0.227865 0,-1.039064 -0.319011,-1.46745 -0.319011,-0.428387 -0.966147,-0.428387 -0.628908,0 -1.221357,0.382814 -0.592449,0.382813 -1.075522,1.084637 l -0.619793,-0.01823 -0.373699,-1.394534 0.05469,-0.08203 q 0.373698,-0.328126 1.412763,-0.656252 1.048179,-0.328125 1.986983,-0.328125 0.756511,-0.0091 1.567711,0.191406 0.820314,0.191407 1.230471,0.555991 0.747397,0.665366 0.747397,2.27865 0,0.0638 -0.03646,1.713545 -0.03646,1.649742 -0.03646,1.959639 z"
       style="font-style:normal;font-variant:normal;font-weight:bold;font-stretch:normal;font-size:18.6667px;line-height:0%;font-family:'Linux Biolinum G';-inkscape-font-specification:'Linux Biolinum G Bold';font-variation-settings:normal;text-align:start;letter-spacing:0px;word-spacing:0px;writing-mode:lr-tb;text-anchor:start;vector-effect:none;fill:#000066;fill-opacity:1;stroke:#000066;stroke-width:0.186222;stroke-linecap:butt;stroke-linejoin:miter;stroke-miterlimit:4;stroke-dasharray:none;stroke-dashoffset:0;stroke-opacity:1;stop-color:#000000"
       id="path863"
       transform="matrix(2.9084531,0,0,2.9084531,109.21933,-124.74526)" />
    <path
       d="m -24.342976,51.161622 q -0.173178,0 -0.309897,0.05469 -0.136719,0.04557 -0.273438,0.200521 -0.136719,0.145834 -0.200521,0.227865 -0.05469,0.08203 -0.21875,0.346355 -0.154948,0.264323 -0.209636,0.346355 l -0.519532,-0.01823 -0.264324,-1.212241 0.03646,-0.04557 q 0.346355,-0.209636 0.902345,-0.391928 0.565105,-0.182292 1.14844,-0.182292 1.102866,0 1.813805,0.501303 0.710939,0.492188 0.710939,1.330731 0,0.565106 -0.23698,0.92969 -0.236979,0.364584 -0.811199,0.856772 l -1.212242,1.02995 q -0.209636,0.164063 -0.446615,0.464844 -0.227865,0.309897 -0.227865,0.428387 h 0.993491 q 0.537762,0 0.856773,-0.01823 0.319011,-0.0091 0.610678,-0.03646 0.300781,-0.02734 0.528646,-0.03646 -0.07292,0.255208 -0.07292,0.710938 0,0.227865 0.07292,0.483074 -0.911459,-0.03646 -1.868492,-0.03646 -0.647137,0 -2.998704,0.03646 v -0.03646 q 0,-0.464845 0.319011,-0.91146 0.319011,-0.446616 1.212242,-1.257815 l 0.893231,-0.765626 q 0.33724,-0.300782 0.492188,-0.638022 0.164063,-0.346355 0.182292,-0.555991 0.01823,-0.209636 0.01823,-0.665366 0,-0.473959 -0.291667,-0.802085 -0.291667,-0.33724 -0.628907,-0.33724 z"
       style="font-style:normal;font-variant:normal;font-weight:bold;font-stretch:normal;font-size:18.6667px;line-height:0%;font-family:'Linux Biolinum G';-inkscape-font-specification:'Linux Biolinum G Bold';font-variation-settings:normal;text-align:start;letter-spacing:0px;word-spacing:0px;writing-mode:lr-tb;text-anchor:start;vector-effect:none;fill:#000066;fill-opacity:1;stroke:#000066;stroke-width:0.186222;stroke-linecap:butt;stroke-linejoin:miter;stroke-miterlimit:4;stroke-dasharray:none;stroke-dashoffset:0;stroke-opacity:1;stop-color:#000000"
       id="path865"
       transform="matrix(2.9084531,0,0,2.9084531,109.21933,-124.74526)" />
    <path
       d="m -30.978405,49.867349 -1.494794,0.391928 q -0.33724,0.09115 -0.583334,0.282553 -0.23698,0.191406 -0.364584,0.446615 -0.11849,0.246094 -0.173178,0.501303 -0.05469,0.255209 -0.05469,0.528647 0,0.391927 0.282552,0.729168 0.291667,0.33724 0.69271,0.33724 0.738282,0 1.376304,-0.638022 0.100261,-0.100261 0.191407,-0.373699 0.09115,-0.273438 0.09115,-0.464844 z m 2.351567,2.652349 q 0,0.428386 0.255209,0.55599 0.255209,0.11849 0.884116,0.11849 0.136719,0.109375 0.182292,0.391928 -0.391928,0.300782 -1.002606,0.45573 -0.610678,0.154948 -1.212242,0.154948 -0.601563,0 -0.938804,-0.246094 -0.33724,-0.255209 -0.537761,-0.829429 h -0.03646 q -1.075523,1.075523 -2.561203,1.075523 -1.039064,0 -1.795576,-0.546876 -0.756512,-0.546876 -0.756512,-1.467451 0,-0.947918 0.756512,-1.631513 0.756512,-0.692709 2.114587,-1.020835 l 2.187504,-0.57422 q 0.109375,-0.03646 0.109375,-0.227865 0,-1.039064 -0.319011,-1.46745 -0.319011,-0.428387 -0.966147,-0.428387 -0.628908,0 -1.221357,0.382814 -0.592449,0.382813 -1.075522,1.084637 l -0.619793,-0.01823 -0.373699,-1.394534 0.05469,-0.08203 q 0.373698,-0.328126 1.412763,-0.656252 1.048179,-0.328125 1.986983,-0.328125 0.756511,-0.0091 1.567711,0.191406 0.820314,0.191407 1.230471,0.555991 0.747397,0.665366 0.747397,2.27865 0,0.0638 -0.03646,1.713545 -0.03646,1.649742 -0.03646,1.959639 z"
       style="font-style:normal;font-variant:normal;font-weight:bold;font-stretch:normal;font-size:18.6667px;line-height:0%;font-family:'Linux Biolinum G';-inkscape-font-specification:'Linux Biolinum G Bold';font-variation-settings:normal;text-align:start;letter-spacing:0px;word-spacing:0px;writing-mode:lr-tb;text-anchor:start;vector-effect:none;fill:url(#linearGradient911);fill-opacity:1;stroke:#0066f0;stroke-width:0.186222;stroke-linecap:butt;stroke-linejoin:miter;stroke-miterlimit:4;stroke-dasharray:none;stroke-dashoffset:0;stroke-opacity:1;stop-color:#000000"
       id="path858"
       transform="matrix(2.9084531,0,0,2.9084531,107.32957,-126.63502)" />
    <path
       d="m -24.342976,51.161622 q -0.173178,0 -0.309897,0.05469 -0.136719,0.04557 -0.273438,0.200521 -0.136719,0.145834 -0.200521,0.227865 -0.05469,0.08203 -0.21875,0.346355 -0.154948,0.264323 -0.209636,0.346355 l -0.519532,-0.01823 -0.264324,-1.212241 0.03646,-0.04557 q 0.346355,-0.209636 0.902345,-0.391928 0.565105,-0.182292 1.14844,-0.182292 1.102866,0 1.813805,0.501303 0.710939,0.492188 0.710939,1.330731 0,0.565106 -0.23698,0.92969 -0.236979,0.364584 -0.811199,0.856772 l -1.212242,1.02995 q -0.209636,0.164063 -0.446615,0.464844 -0.227865,0.309897 -0.227865,0.428387 h 0.993491 q 0.537762,0 0.856773,-0.01823 0.319011,-0.0091 0.610678,-0.03646 0.300781,-0.02734 0.528646,-0.03646 -0.07292,0.255208 -0.07292,0.710938 0,0.227865 0.07292,0.483074 -0.911459,-0.03646 -1.868492,-0.03646 -0.647137,0 -2.998704,0.03646 v -0.03646 q 0,-0.464845 0.319011,-0.91146 0.319011,-0.446616 1.212242,-1.257815 l 0.893231,-0.765626 q 0.33724,-0.300782 0.492188,-0.638022 0.164063,-0.346355 0.182292,-0.555991 0.01823,-0.209636 0.01823,-0.665366 0,-0.473959 -0.291667,-0.802085 -0.291667,-0.33724 -0.628907,-0.33724 z"
       style="font-style:normal;font-variant:normal;font-weight:bold;font-stretch:normal;font-size:18.6667px;line-height:0%;font-family:'Linux Biolinum G';-inkscape-font-specification:'Linux Biolinum G Bold';font-variation-settings:normal;text-align:start;letter-spacing:0px;word-spacing:0px;writing-mode:lr-tb;text-anchor:start;vector-effect:none;fill:url(#linearGradient913);fill-opacity:1;stroke:#0066f0;stroke-width:0.186222;stroke-linecap:butt;stroke-linejoin:miter;stroke-miterlimit:4;stroke-dasharray:none;stroke-dashoffset:0;stroke-opacity:1;stop-color:#000000"
       id="path860"
       transform="matrix(2.9084531,0,0,2.9084531,107.32957,-126.63502)" />
  </g>
</svg>
